<?xml version="1.0" encoding="UTF-8"?>
<svg xmlns="http://www.w3.org/2000/svg" viewBox="59 59 470 470">
  <circle cx="294" cy="294" r="235" fill="rgb(9,0,20)"/>
  <path d="M67.13,310.77h-7.23v-33.54h7.23c14.47,0,26.3-11.84,26.3-26.3v-42.42c0-32.88,26.96-59.84,59.84-59.84h18.41v33.54h-18.41c-14.47,0-26.3,11.84-26.3,26.3v42.42c0,16.77-7.23,32.22-18.41,43.07,11.18,10.85,18.41,26.3,18.41,43.07v42.42c0,14.47,11.84,26.3,26.3,26.3h18.41v33.54h-18.41c-32.88,0-59.84-26.96-59.84-59.84v-42.42c0-14.47-11.84-26.3-26.3-26.3Z" fill="white"/>
  <path d="M479.44,294c-11.18-10.85-18.41-26.3-18.41-43.07v-42.42c0-14.47-11.84-26.3-26.31-26.3h-18.41v-33.54h18.41c32.88,0,59.84,26.96,59.84,59.84v42.42c0,14.47,11.84,26.3,26.31,26.3h7.23v33.54h-7.23c-14.47,0-26.31,11.84-26.31,26.3v42.42c0,32.88-26.96,59.84-59.84,59.84h-18.41v-33.54h18.41c14.47,0,26.31-11.84,26.31-26.3v-42.42c0-16.77,7.23-32.22,18.41-43.07Z" fill="white"/>
  <path d="M210.17,380.19c-12.38,0-22.01-3.04-28.89-9.12-6.89-6.08-10.33-14.72-10.33-25.93,0-13.04,4.5-23.03,13.51-29.99,9.01-6.96,21.79-10.44,38.34-10.44,6.37,0,11.88.33,16.53.99,4.65.66,9.36,1.69,14.12,3.08l-4.83,23.18c-4.69-1.1-8.9-1.74-12.63-1.92-3.74-.18-7.65-.27-11.76-.27-15.38,0-23.07,4.39-23.07,13.18,0,3.96,1.39,6.98,4.17,9.06,2.78,2.09,6.85,3.13,12.19,3.13,6.44,0,11.83-1.21,16.15-3.63,4.32-2.42,7.56-5.49,9.72-9.23,2.16-3.74,3.24-7.58,3.24-11.54v-7.25l4.17,29.88h-9.34l3.85-3.52c-.22,6.74-1.76,12.36-4.61,16.86-2.86,4.5-6.87,7.87-12.03,10.11-5.16,2.23-11.33,3.35-18.51,3.35ZM249.61,379.09l-2.53-34.5-.44-15.16v-22.74c0-6.22-2.66-10.78-7.96-13.68-5.31-2.89-13.2-4.49-23.68-4.78l-29.77-.77,2.2-27.03,25.38.33c21.09.29,36.77,4.45,47.02,12.47,10.25,8.02,15.38,19.72,15.38,35.1v43.07l16.15,2.42v24.17l-41.75,1.1Z" fill="white"/>
  <path d="M309.82,377.99v-27.47h45.26v27.47h-45.26ZM316.41,289v-27.47h66.14v27.47h-66.14ZM366.4,245.82c-5.64,0-10.22-1.76-13.73-5.27s-5.27-8.09-5.27-13.73,1.76-10.22,5.27-13.73,8.09-5.27,13.73-5.27,10.22,1.76,13.73,5.27,5.27,8.09,5.27,13.73-1.76,10.22-5.27,13.73-8.09,5.27-13.73,5.27ZM352.89,377.99v-109.86h29.66v109.86h-29.66ZM380.35,377.99v-27.47h36.7v27.47h-36.7Z" fill="white"/>
</svg>
