<?xml version="1.0" encoding="UTF-8"?>
<svg id="Layer_2" data-name="Layer 2" xmlns="http://www.w3.org/2000/svg" viewBox="0 0 129.63 123.8">
  <defs>
    <style>
      .cls-1 {
        fill: #1b1b1b;
      }
    </style>
  </defs>
  <g id="Layer_2-2" data-name="Layer 2">
    <path class="cls-1" d="M69.74,3.58l11.75,36.16c.69,2.14,2.68,3.58,4.93,3.58h38.02c5.02,0,7.11,6.42,3.05,9.37l-30.76,22.35c-1.82,1.32-2.58,3.66-1.88,5.79l11.75,36.16c1.55,4.77-3.91,8.74-7.97,5.79l-30.76-22.35c-1.82-1.32-4.28-1.32-6.09,0l-30.76,22.35c-4.06,2.95-9.53-1.02-7.97-5.79l11.75-36.16c.69-2.14-.07-4.47-1.88-5.79L2.15,52.69c-4.06-2.95-1.97-9.37,3.05-9.37h38.02c2.25,0,4.23-1.45,4.93-3.58L59.89,3.58c1.55-4.77,8.31-4.77,9.86,0Z"/>
  </g>
</svg>