<?xml version="1.0" encoding="UTF-8"?>
<svg id="Layer_2" data-name="Layer 2" xmlns="http://www.w3.org/2000/svg" viewBox="0 0 646.33 113.95">
  <defs>
    <style>
      .cls-1 {
        fill: #1b1b1b;
      }
    </style>
  </defs>
  <g id="Layer_2-2" data-name="Layer 2">
    <g>
      <path class="cls-1" d="M0,46.47c0-5.52.99-10.74,2.98-15.64,1.98-4.9,4.79-9.17,8.41-12.79,3.62-3.62,7.92-6.48,12.9-8.58,4.98-2.1,10.47-3.15,16.46-3.15s11.48,1.05,16.46,3.15c4.98,2.1,9.26,4.96,12.84,8.58,3.58,3.62,6.36,7.88,8.35,12.79,1.99,4.9,2.98,10.12,2.98,15.64s-.99,10.61-2.98,15.47c-1.98,4.87-4.77,9.11-8.35,12.73-3.58,3.62-7.86,6.48-12.84,8.58-4.98,2.1-10.47,3.15-16.46,3.15s-11.48-1.05-16.46-3.15c-4.98-2.1-9.28-4.96-12.9-8.58-3.62-3.62-6.42-7.86-8.41-12.73-1.98-4.86-2.98-10.02-2.98-15.47ZM19.85,46.35c0,3.11.51,5.98,1.52,8.58,1.01,2.61,2.43,4.87,4.26,6.77,1.83,1.91,4.03,3.38,6.6,4.44,2.57,1.05,5.41,1.58,8.52,1.58s5.93-.53,8.46-1.58c2.53-1.05,4.71-2.53,6.54-4.44,1.83-1.91,3.25-4.16,4.26-6.77,1.01-2.61,1.52-5.47,1.52-8.58s-.51-5.97-1.52-8.58c-1.01-2.61-2.43-4.86-4.26-6.77-1.83-1.91-4.01-3.39-6.54-4.44-2.53-1.05-5.35-1.58-8.46-1.58s-5.95.53-8.52,1.58c-2.57,1.05-4.77,2.53-6.6,4.44-1.83,1.91-3.25,4.17-4.26,6.77-1.01,2.61-1.52,5.47-1.52,8.58Z"/>
      <path class="cls-1" d="M90.6.7h19.15v30.59c4.83-3.27,10.27-4.9,16.35-4.9,4.13,0,8,.78,11.62,2.34,3.62,1.56,6.77,3.68,9.46,6.36,2.69,2.68,4.81,5.84,6.36,9.46,1.56,3.62,2.33,7.49,2.33,11.62s-.78,8-2.33,11.62c-1.56,3.62-3.68,6.77-6.36,9.46-2.68,2.69-5.84,4.81-9.46,6.36-3.62,1.56-7.49,2.34-11.62,2.34-3.58,0-6.95-.58-10.1-1.75-3.15-1.17-6.01-2.76-8.58-4.79l-.47,5.37h-16.35V.7ZM136.72,56.16c0-1.87-.37-3.6-1.11-5.19-.74-1.59-1.71-3.02-2.92-4.26-1.21-1.25-2.63-2.22-4.26-2.92-1.63-.7-3.39-1.05-5.25-1.05s-3.6.35-5.2,1.05c-1.6.7-3.02,1.67-4.26,2.92-1.25,1.25-2.22,2.67-2.92,4.26-.7,1.6-1.05,3.33-1.05,5.19s.35,3.6,1.05,5.19c.7,1.6,1.67,3.02,2.92,4.26,1.24,1.25,2.67,2.22,4.26,2.92,1.59.7,3.33,1.05,5.2,1.05s3.62-.35,5.25-1.05c1.63-.7,3.05-1.67,4.26-2.92,1.21-1.24,2.18-2.67,2.92-4.26.74-1.59,1.11-3.33,1.11-5.19Z"/>
      <path class="cls-1" d="M185.63,27.55v60.01c0,3.74-.6,7.1-1.81,10.1-1.21,2.99-2.9,5.6-5.08,7.82-2.18,2.22-4.71,4.03-7.59,5.43-2.88,1.4-6.03,2.41-9.46,3.04l-5.37-12.96c2.96-1.56,5.37-3.29,7.24-5.2,1.87-1.91,2.8-4.65,2.8-8.23V27.55h19.26ZM164.15,12.14c0-1.71.31-3.31.93-4.79.62-1.48,1.5-2.76,2.63-3.85,1.13-1.09,2.41-1.94,3.85-2.57,1.44-.62,2.98-.93,4.61-.93s3.17.31,4.61.93c1.44.63,2.69,1.48,3.74,2.57,1.05,1.09,1.89,2.37,2.51,3.85.62,1.48.93,3.07.93,4.79s-.31,3.21-.93,4.73c-.62,1.52-1.46,2.82-2.51,3.91-1.05,1.09-2.3,1.96-3.74,2.63-1.44.66-2.98.99-4.61.99s-3.17-.33-4.61-.99c-1.44-.66-2.72-1.54-3.85-2.63-1.13-1.09-2.01-2.39-2.63-3.91-.62-1.52-.93-3.09-.93-4.73Z"/>
      <path class="cls-1" d="M250.31,78.34c-.86.78-2.1,1.63-3.74,2.57-1.63.93-3.54,1.79-5.72,2.57-2.18.78-4.55,1.42-7.12,1.93-2.57.5-5.18.76-7.82.76-4.44,0-8.52-.76-12.26-2.28-3.74-1.52-6.95-3.62-9.63-6.3-2.69-2.69-4.79-5.84-6.3-9.46-1.52-3.62-2.28-7.53-2.28-11.73s.76-8.11,2.28-11.73c1.52-3.62,3.62-6.77,6.3-9.46,2.68-2.68,5.9-4.79,9.63-6.3,3.74-1.52,7.82-2.28,12.26-2.28,4.75,0,9.01.76,12.78,2.28,3.77,1.52,6.99,3.6,9.63,6.25,2.64,2.65,4.69,5.78,6.13,9.4,1.44,3.62,2.16,7.53,2.16,11.73,0,1.01-.08,2.06-.23,3.15-.16,1.09-.31,2.1-.47,3.04l-40.75-.12c1.09,2.8,2.78,4.81,5.08,6.01,2.29,1.21,4.88,1.81,7.76,1.81,2.02,0,3.79-.19,5.31-.58,1.52-.39,2.8-.84,3.85-1.34,1.05-.51,1.89-1.01,2.51-1.52.62-.51,1.05-.88,1.28-1.11l9.34,12.73ZM237.35,51.6c-.16-2.57-1.13-4.77-2.92-6.6-1.79-1.83-4.36-2.74-7.71-2.74-2.96,0-5.51.76-7.65,2.28-2.14,1.52-3.6,3.87-4.38,7.06h22.65Z"/>
      <path class="cls-1" d="M322.93,70.17c-.86,2.34-2.16,4.46-3.91,6.36-1.75,1.91-3.81,3.54-6.19,4.9-2.37,1.36-5,2.41-7.88,3.15-2.88.74-5.92,1.11-9.11,1.11-4.59,0-8.84-.72-12.73-2.16-3.89-1.44-7.24-3.48-10.04-6.13-2.8-2.64-5-5.78-6.6-9.4-1.6-3.62-2.39-7.57-2.39-11.85s.8-8.33,2.39-11.91c1.59-3.58,3.79-6.69,6.6-9.34,2.8-2.64,6.15-4.69,10.04-6.13,3.89-1.44,8.13-2.16,12.73-2.16,3.19,0,6.23.37,9.11,1.11,2.88.74,5.51,1.79,7.88,3.15,2.37,1.36,4.44,3,6.19,4.9,1.75,1.91,3.05,4.03,3.91,6.36l-14.94,7.35c-1.01-2.02-2.59-3.68-4.73-4.96-2.14-1.28-4.5-1.93-7.06-1.93-1.87,0-3.62.35-5.25,1.05-1.63.7-3.06,1.65-4.26,2.86-1.21,1.21-2.16,2.63-2.86,4.26-.7,1.64-1.05,3.39-1.05,5.25s.35,3.74,1.05,5.37c.7,1.64,1.65,3.08,2.86,4.32,1.21,1.25,2.63,2.22,4.26,2.92,1.64.7,3.39,1.05,5.25,1.05,2.57,0,4.92-.64,7.06-1.93,2.14-1.28,3.72-2.94,4.73-4.96l14.94,7.36Z"/>
      <path class="cls-1" d="M335.54,27.55l4.09-15.18h15.18v15.18h15.06v15.18h-15.06v17.98c0,3.27.54,5.62,1.64,7.06,1.09,1.44,2.92,2.16,5.49,2.16,1.09,0,2.28-.12,3.56-.35,1.28-.24,2.74-.55,4.38-.94v15.18c-5.22,1.4-10.08,2.1-14.59,2.1-5.84,0-10.59-1.36-14.24-4.09-3.66-2.72-5.49-7.16-5.49-13.31v-25.8h-8.17v-15.18h8.17Z"/>
      <path class="cls-1" d="M379.2,12.14c0-1.71.31-3.31.93-4.79.62-1.48,1.46-2.76,2.51-3.85,1.05-1.09,2.29-1.94,3.74-2.57,1.44-.62,2.98-.93,4.61-.93s3.17.31,4.61.93c1.44.63,2.72,1.48,3.85,2.57,1.13,1.09,2,2.37,2.63,3.85.62,1.48.93,3.07.93,4.79s-.31,3.21-.93,4.73c-.62,1.52-1.5,2.82-2.63,3.91-1.13,1.09-2.41,1.96-3.85,2.63-1.44.66-2.98.99-4.61.99s-3.17-.33-4.61-.99c-1.44-.66-2.68-1.54-3.74-2.63s-1.89-2.39-2.51-3.91c-.62-1.52-.93-3.09-.93-4.73ZM381.42,27.55h19.26v57.21h-19.26V27.55Z"/>
      <path class="cls-1" d="M430.93,27.55l9.69,36.54h.23l9.81-36.54h21.72l-20.2,57.21h-22.88l-20.08-57.21h21.72Z"/>
      <path class="cls-1" d="M527.83,78.34c-.86.78-2.1,1.63-3.74,2.57-1.63.93-3.54,1.79-5.72,2.57-2.18.78-4.55,1.42-7.12,1.93-2.57.5-5.18.76-7.82.76-4.44,0-8.52-.76-12.26-2.28-3.74-1.52-6.95-3.62-9.63-6.3-2.69-2.69-4.79-5.84-6.3-9.46-1.52-3.62-2.28-7.53-2.28-11.73s.76-8.11,2.28-11.73c1.52-3.62,3.62-6.77,6.3-9.46,2.68-2.68,5.9-4.79,9.63-6.3s7.82-2.28,12.26-2.28c4.75,0,9.01.76,12.78,2.28,3.77,1.52,6.99,3.6,9.63,6.25,2.64,2.65,4.69,5.78,6.13,9.4,1.44,3.62,2.16,7.53,2.16,11.73,0,1.01-.08,2.06-.23,3.15-.16,1.09-.31,2.1-.47,3.04l-40.75-.12c1.09,2.8,2.78,4.81,5.08,6.01,2.29,1.21,4.88,1.81,7.76,1.81,2.02,0,3.79-.19,5.31-.58,1.52-.39,2.8-.84,3.85-1.34,1.05-.51,1.89-1.01,2.51-1.52.62-.51,1.05-.88,1.28-1.11l9.34,12.73ZM514.87,51.6c-.16-2.57-1.13-4.77-2.92-6.6-1.79-1.83-4.36-2.74-7.71-2.74-2.96,0-5.51.76-7.65,2.28-2.14,1.52-3.6,3.87-4.38,7.06h22.65Z"/>
      <path class="cls-1" d="M565.89,7.94h22.77l28.6,76.82h-21.72l-4.55-12.26h-27.44l-4.55,12.26h-21.72l28.6-76.82ZM569.51,56.16h15.53l-7.59-25.33h-.23l-7.71,25.33Z"/>
      <path class="cls-1" d="M646.33,84.76h-19.85V7.94h19.85v76.82Z"/>
    </g>
  </g>
</svg>