<?xml version="1.0" encoding="UTF-8"?>
<svg id="Layer_2" data-name="Layer 2" xmlns="http://www.w3.org/2000/svg" viewBox="0 0 147.98 213.99">
  <defs>
    <style>
      .cls-1 {
        fill: #1b1b1b;
      }
    </style>
  </defs>
  <g id="Layer_2-2" data-name="Layer 2">
    <path class="cls-1" d="M147.98,106.74v7.93c0,4.04-3.27,7.31-7.31,7.31h-39.64c-.75,0-1.41.5-1.6,1.23l-23.76,89.48c-.46,1.73-2.9,1.73-3.36,0l-23.76-89.48c-.19-.72-.85-1.23-1.6-1.23H7.31c-4.04,0-7.31-3.27-7.31-7.31v-7.93c0-19.69,15.96-35.65,35.65-35.65h11.89c1.13,0,2.08-.84,2.21-1.96l4.06-33.02h-8.11c-13.14,0-23.8-10.66-23.8-23.81V4.3c0-2.37,1.93-4.3,4.3-4.3h95.57c2.38,0,4.31,1.93,4.31,4.31v7.99c0,13.15-10.66,23.81-23.8,23.81h-8.54l4.07,33.02c.14,1.12,1.09,1.96,2.21,1.96h12.31c19.69,0,35.65,15.96,35.65,35.65Z"/>
  </g>
</svg>